<svg xmlns="http://www.w3.org/2000/svg" viewBox="0 0 1024 1024">
  <rect width="1024" height="1024" fill="#ffffff"/>
  <g transform="rotate(-4 512 512)">
    <text
      x="512"
      y="430"
      text-anchor="middle"
      font-family="Arial Rounded MT Bold, Marker Felt, Chalkboard SE, Arial Black, sans-serif"
      font-size="170"
      font-weight="900"
      letter-spacing="10"
      fill="#ff545c"
      stroke="#ff545c"
      stroke-width="16"
      paint-order="stroke fill"
    >JUST</text>
    <path d="M392 490 L470 548" stroke="#000000" stroke-width="30" stroke-linecap="round"/>
    <path d="M616 490 L538 548" stroke="#000000" stroke-width="30" stroke-linecap="round"/>
    <text
      x="512"
      y="662"
      text-anchor="middle"
      font-family="Arial Rounded MT Bold, Marker Felt, Chalkboard SE, Arial Black, sans-serif"
      font-size="148"
      font-weight="900"
      letter-spacing="6"
      fill="#ff545c"
      stroke="#ff545c"
      stroke-width="15"
      paint-order="stroke fill"
    >CHOOSE.</text>
  </g>
  <g fill="none" stroke="#ffffff" stroke-width="9" stroke-linecap="round" opacity="0.95">
    <path d="M322 356 C318 382 315 404 315 424"/>
    <path d="M392 330 C388 361 386 393 386 420"/>
    <path d="M548 313 C528 328 515 352 510 379"/>
    <path d="M672 306 C665 327 664 346 670 362"/>
    <path d="M180 585 C150 598 130 619 121 648"/>
    <path d="M385 548 C362 570 349 599 345 633"/>
    <path d="M506 546 C482 575 471 607 474 646"/>
    <path d="M704 506 C677 523 661 551 656 590"/>
    <path d="M808 501 C794 531 790 559 798 586"/>
  </g>
</svg>
